<svg width="16" height="13" viewBox="0 0 16 13" fill="none" xmlns="http://www.w3.org/2000/svg">
<path d="M14.973 12.2041H13.8012V5.93954C13.8011 5.81089 13.7748 5.68367 13.724 5.56587C13.6733 5.44807 13.5992 5.34224 13.5063 5.25505L8.29832 0.248052L8.29246 0.242746C8.12512 0.0866062 7.90645 0 7.67954 0C7.45263 0 7.23396 0.0866062 7.06662 0.242746L7.06076 0.248052L1.85275 5.25571C1.76063 5.34309 1.68728 5.44896 1.63731 5.56665C1.58734 5.68434 1.56183 5.81131 1.5624 5.93954V12.2041H0.390601C0.287007 12.2041 0.187656 12.246 0.114404 12.3206C0.0411525 12.3953 0 12.4965 0 12.602C0 12.7076 0.0411525 12.8088 0.114404 12.8834C0.187656 12.9581 0.287007 13 0.390601 13H14.973C15.0766 13 15.176 12.9581 15.2492 12.8834C15.3225 12.8088 15.3636 12.7076 15.3636 12.602C15.3636 12.4965 15.3225 12.3953 15.2492 12.3206C15.176 12.246 15.0766 12.2041 14.973 12.2041ZM2.34361 5.93954C2.34357 5.92107 2.34731 5.90281 2.3546 5.8859C2.36188 5.869 2.37255 5.85383 2.38592 5.84137L2.39178 5.83607L7.59589 0.829736C7.6196 0.808649 7.65002 0.797031 7.68149 0.797031C7.71297 0.797031 7.74338 0.808649 7.7671 0.829736L12.9719 5.83673L12.9771 5.84204C12.9906 5.85444 13.0013 5.86958 13.0087 5.88649C13.0161 5.90339 13.02 5.92169 13.02 5.9402V12.2041H9.63482V8.88775C9.63482 8.64148 9.5388 8.40529 9.36788 8.23115C9.19696 8.05701 8.96514 7.95918 8.72342 7.95918H6.64022C6.3985 7.95918 6.16668 8.05701 5.99576 8.23115C5.82484 8.40529 5.72881 8.64148 5.72881 8.88775V12.2041H2.34361V5.93954ZM8.85362 12.2041H6.51002V8.88775C6.51002 8.85257 6.52373 8.81883 6.54815 8.79395C6.57257 8.76907 6.60568 8.7551 6.64022 8.7551H8.72342C8.75795 8.7551 8.79107 8.76907 8.81549 8.79395C8.8399 8.81883 8.85362 8.85257 8.85362 8.88775V12.2041Z" fill="white"/>
</svg>
