<svg width="22" height="21" viewBox="0 0 22 21" fill="none" xmlns="http://www.w3.org/2000/svg">
<path d="M16.8457 0H5.68945C2.97118 0 0.767578 2.2036 0.767578 4.92188V16.0781C0.767578 18.7964 2.97118 21 5.68945 21H16.8457C19.564 21 21.7676 18.7964 21.7676 16.0781V4.92188C21.7676 2.2036 19.564 0 16.8457 0Z" fill="url(#paint0_radial_2_142)"/>
<path d="M16.8457 0H5.68945C2.97118 0 0.767578 2.2036 0.767578 4.92188V16.0781C0.767578 18.7964 2.97118 21 5.68945 21H16.8457C19.564 21 21.7676 18.7964 21.7676 16.0781V4.92188C21.7676 2.2036 19.564 0 16.8457 0Z" fill="url(#paint1_radial_2_142)"/>
<path d="M11.2683 2.29688C9.04051 2.29688 8.76087 2.30664 7.88592 2.34642C7.01262 2.38645 6.4165 2.52468 5.89494 2.72754C5.35534 2.93705 4.89769 3.21735 4.44176 3.67344C3.98542 4.12945 3.70512 4.58711 3.49495 5.12646C3.29152 5.64818 3.15313 6.24455 3.11384 7.11744C3.07471 7.99247 3.06445 8.2722 3.06445 10.5001C3.06445 12.728 3.0743 13.0067 3.114 13.8817C3.1542 14.755 3.29242 15.3511 3.49512 15.8726C3.70479 16.4122 3.98509 16.8699 4.44118 17.3258C4.89703 17.7822 5.35468 18.0631 5.89388 18.2726C6.41584 18.4755 7.01204 18.6137 7.88518 18.6537C8.76021 18.6935 9.03961 18.7033 11.2673 18.7033C13.4954 18.7033 13.7741 18.6935 14.6491 18.6537C15.5224 18.6137 16.1192 18.4755 16.6411 18.2726C17.1805 18.0631 17.6375 17.7822 18.0932 17.3258C18.5496 16.8699 18.8298 16.4122 19.04 15.8729C19.2417 15.3511 19.3801 14.7548 19.4212 13.8818C19.4604 13.0069 19.4707 12.728 19.4707 10.5001C19.4707 8.2722 19.4604 7.99263 19.4212 7.11761C19.3801 6.2443 19.2417 5.64826 19.04 5.12671C18.8298 4.58711 18.5496 4.12945 18.0932 3.67344C17.637 3.21718 17.1806 2.93688 16.6406 2.72762C16.1177 2.52468 15.5212 2.38637 14.6479 2.34642C13.7729 2.30664 13.4943 2.29688 11.2658 2.29688H11.2683ZM10.5324 3.77516C10.7509 3.77483 10.9946 3.77516 11.2683 3.77516C13.4586 3.77516 13.7182 3.78304 14.5831 3.82233C15.3829 3.85891 15.817 3.99254 16.1062 4.10484C16.489 4.25348 16.7619 4.43125 17.0489 4.71844C17.336 5.00555 17.5137 5.27896 17.6627 5.6618C17.775 5.95055 17.9088 6.38466 17.9453 7.18446C17.9845 8.04923 17.9931 8.30895 17.9931 10.4982C17.9931 12.6874 17.9845 12.9472 17.9453 13.8119C17.9087 14.6117 17.775 15.0458 17.6627 15.3347C17.5141 15.7175 17.336 15.9901 17.0489 16.2771C16.7618 16.5642 16.4892 16.7418 16.1062 16.8906C15.8174 17.0034 15.3829 17.1367 14.5831 17.1732C13.7183 17.2125 13.4586 17.2211 11.2683 17.2211C9.07792 17.2211 8.81829 17.2125 7.9536 17.1732C7.15379 17.1363 6.71968 17.0027 6.43028 16.8904C6.04752 16.7417 5.77403 16.564 5.48692 16.2769C5.19981 15.9898 5.02213 15.717 4.87308 15.334C4.76078 15.0452 4.62698 14.6111 4.59056 13.8113C4.55127 12.9465 4.54339 12.6868 4.54339 10.4961C4.54339 8.30558 4.55127 8.04718 4.59056 7.18241C4.62715 6.38261 4.76078 5.9485 4.87308 5.65934C5.0218 5.2765 5.19981 5.00309 5.487 4.71598C5.77411 4.42887 6.04752 4.25111 6.43036 4.10214C6.71952 3.98934 7.15379 3.85604 7.9536 3.81929C8.71034 3.78509 9.0036 3.77483 10.5324 3.77311V3.77516ZM15.6471 5.13721C15.1037 5.13721 14.6628 5.57771 14.6628 6.12125C14.6628 6.66471 15.1037 7.10563 15.6471 7.10563C16.1906 7.10563 16.6315 6.66471 16.6315 6.12125C16.6315 5.5778 16.1906 5.13688 15.6471 5.13688V5.13721ZM11.2683 6.28737C8.94191 6.28737 7.05568 8.17359 7.05568 10.5001C7.05568 12.8266 8.94191 14.7119 11.2683 14.7119C13.5948 14.7119 15.4804 12.8266 15.4804 10.5001C15.4804 8.17368 13.5946 6.28737 11.2682 6.28737H11.2683ZM11.2683 7.76565C12.7784 7.76565 14.0027 8.98981 14.0027 10.5001C14.0027 12.0102 12.7784 13.2345 11.2683 13.2345C9.75812 13.2345 8.53397 12.0102 8.53397 10.5001C8.53397 8.98981 9.75812 7.76565 11.2683 7.76565Z" fill="white"/>
<defs>
<radialGradient id="paint0_radial_2_142" cx="0" cy="0" r="1" gradientUnits="userSpaceOnUse" gradientTransform="translate(6.3457 22.6174) rotate(-90) scale(20.8126 19.3573)">
<stop stop-color="#FFDD55"/>
<stop offset="0.1" stop-color="#FFDD55"/>
<stop offset="0.5" stop-color="#FF543E"/>
<stop offset="1" stop-color="#C837AB"/>
</radialGradient>
<radialGradient id="paint1_radial_2_142" cx="0" cy="0" r="1" gradientUnits="userSpaceOnUse" gradientTransform="translate(-2.75 1.51274) rotate(78.681) scale(9.30333 38.3486)">
<stop stop-color="#3771C8"/>
<stop offset="0.128" stop-color="#3771C8"/>
<stop offset="1" stop-color="#6600FF" stop-opacity="0"/>
</radialGradient>
</defs>
</svg>
