<svg width="14" height="14" viewBox="0 0 14 14" fill="none" xmlns="http://www.w3.org/2000/svg">
<path d="M5.1 5.79995L6.6 6.99995C6.74189 7.11355 6.91824 7.17545 7.1 7.17545C7.28176 7.17545 7.45811 7.11355 7.6 6.99995L9.1 5.79995M10.7 8.99995V4.99995C10.7 4.78778 10.6157 4.58429 10.4657 4.43427C10.3157 4.28424 10.1122 4.19995 9.9 4.19995H4.3C4.08783 4.19995 3.88434 4.28424 3.73431 4.43427C3.58429 4.58429 3.5 4.78778 3.5 4.99995V8.99995C3.5 9.21212 3.58429 9.41561 3.73431 9.56564C3.88434 9.71567 4.08783 9.79995 4.3 9.79995H9.9C10.1122 9.79995 10.3157 9.71567 10.4657 9.56564C10.6157 9.41561 10.7 9.21212 10.7 8.99995Z" stroke="black" stroke-width="1.14286" stroke-linecap="round" stroke-linejoin="round"/>
<circle cx="7" cy="7" r="6.5" stroke="black"/>
</svg>
