<svg width="14" height="14" viewBox="0 0 14 14" fill="none" xmlns="http://www.w3.org/2000/svg">
<path d="M5.1 5.80001L6.6 7.00001C6.74189 7.11361 6.91824 7.17551 7.1 7.17551C7.28176 7.17551 7.45811 7.11361 7.6 7.00001L9.1 5.80001M10.7 9.00001V5.00001C10.7 4.78784 10.6157 4.58436 10.4657 4.43433C10.3157 4.2843 10.1122 4.20001 9.9 4.20001H4.3C4.08783 4.20001 3.88434 4.2843 3.73431 4.43433C3.58429 4.58436 3.5 4.78784 3.5 5.00001V9.00001C3.5 9.21219 3.58429 9.41567 3.73431 9.5657C3.88434 9.71573 4.08783 9.80001 4.3 9.80001H9.9C10.1122 9.80001 10.3157 9.71573 10.4657 9.5657C10.6157 9.41567 10.7 9.21219 10.7 9.00001Z" stroke="white" stroke-width="1.14286" stroke-linecap="round" stroke-linejoin="round"/>
<circle cx="7" cy="7" r="6.5" stroke="white"/>
</svg>
