<svg width="14" height="14" viewBox="0 0 14 14" fill="none" xmlns="http://www.w3.org/2000/svg">
<circle cx="7" cy="7" r="6.5" stroke="white"/>
<path d="M6.94025 3.94328L7.09895 5.44091C7.10038 5.45427 7.10498 5.46715 7.11239 5.47849C7.1198 5.48982 7.1298 5.49928 7.14157 5.50609L7.14174 5.50619C7.15357 5.51299 7.16682 5.51691 7.18039 5.51763C7.19396 5.51836 7.20746 5.51586 7.21978 5.51036L8.59116 4.89613C8.60534 4.88978 8.61742 4.87965 8.62608 4.86686C8.63473 4.85406 8.63962 4.8391 8.64022 4.82361C8.64086 4.80812 8.63717 4.7927 8.62957 4.77904C8.62196 4.76537 8.61073 4.754 8.59711 4.74617L8.23822 4.53897L8.78506 3.59188C8.79059 3.58232 8.79415 3.57174 8.79553 3.56075C8.7969 3.54976 8.79608 3.53858 8.7931 3.52784C8.79012 3.5171 8.78505 3.50702 8.77817 3.49817C8.77128 3.48932 8.76273 3.48188 8.75299 3.47627L8.08897 3.09293C8.07923 3.08731 8.06851 3.08362 8.0574 3.08209C8.04629 3.08056 8.03501 3.08121 8.02422 3.084C8.01343 3.0868 8.00333 3.09168 7.99451 3.09838C7.98568 3.10507 7.97829 3.11345 7.97278 3.12302L7.42603 4.07001L7.06703 3.86274C7.03934 3.84676 7.00506 3.84742 6.97828 3.86428C6.96517 3.87259 6.95468 3.88437 6.94797 3.89831C6.94126 3.91225 6.93859 3.92781 6.94025 3.94328Z" fill="white"/>
<path d="M9.04556 8.75087L7.95681 8.62657C7.82879 8.61153 7.69903 8.62571 7.57727 8.66802C7.45552 8.71034 7.34494 8.7797 7.25384 8.87089L6.46513 9.6596C5.2483 9.04073 4.25924 8.05168 3.64038 6.83484L4.43337 6.04185C4.61768 5.85754 4.7077 5.60035 4.67769 5.33888L4.55339 4.2587C4.52909 4.0496 4.42873 3.85673 4.27144 3.71683C4.11415 3.57692 3.9109 3.49975 3.70039 3.5H2.95884C2.47447 3.5 2.07155 3.90292 2.10155 4.38729C2.32873 8.0479 5.25636 10.9712 8.91268 11.1984C9.39705 11.2284 9.79997 10.8255 9.79997 10.3411V9.59959C9.80426 9.16666 9.47849 8.80231 9.04556 8.75087Z" fill="white"/>
</svg>
