<svg width="14" height="14" viewBox="0 0 14 14" fill="none" xmlns="http://www.w3.org/2000/svg">
<circle cx="7" cy="7" r="6.5" stroke="black"/>
<path d="M6.94028 3.94322L7.09898 5.44085C7.10041 5.45421 7.10501 5.46709 7.11242 5.47843C7.11983 5.48976 7.12983 5.49922 7.1416 5.50603L7.14177 5.50613C7.1536 5.51293 7.16685 5.51685 7.18042 5.51757C7.19399 5.5183 7.2075 5.5158 7.21981 5.5103L8.59119 4.89607C8.60537 4.88972 8.61745 4.87959 8.62611 4.86679C8.63476 4.854 8.63965 4.83904 8.64025 4.82355C8.64089 4.80806 8.6372 4.79264 8.6296 4.77897C8.62199 4.76531 8.61076 4.75394 8.59714 4.74611L8.23825 4.53891L8.78509 3.59182C8.79062 3.58226 8.79418 3.57168 8.79556 3.56069C8.79694 3.5497 8.79611 3.53852 8.79313 3.52778C8.79016 3.51704 8.78508 3.50696 8.7782 3.49811C8.77131 3.48926 8.76276 3.48182 8.75302 3.47621L8.089 3.09287C8.07927 3.08725 8.06854 3.08356 8.05743 3.08203C8.04632 3.0805 8.03504 3.08115 8.02425 3.08394C8.01346 3.08674 8.00336 3.09162 7.99454 3.09832C7.98571 3.10501 7.97832 3.11339 7.97281 3.12296L7.42606 4.06995L7.06706 3.86268C7.03937 3.84669 7.00509 3.84736 6.97831 3.86422C6.9652 3.87253 6.95471 3.88431 6.948 3.89825C6.94129 3.91218 6.93862 3.92775 6.94028 3.94322Z" fill="black"/>
<path d="M9.04559 8.75087L7.95684 8.62657C7.82882 8.61153 7.69906 8.62571 7.5773 8.66802C7.45555 8.71034 7.34497 8.7797 7.25387 8.87089L6.46517 9.6596C5.24833 9.04073 4.25927 8.05168 3.64041 6.83484L4.4334 6.04185C4.61771 5.85754 4.70773 5.60035 4.67772 5.33888L4.55342 4.2587C4.52912 4.0496 4.42877 3.85673 4.27147 3.71683C4.11418 3.57692 3.91093 3.49975 3.70042 3.5H2.95887C2.4745 3.5 2.07158 3.90292 2.10158 4.38729C2.32876 8.0479 5.25639 10.9712 8.91272 11.1984C9.39708 11.2284 9.80001 10.8255 9.80001 10.3411V9.59959C9.80429 9.16666 9.47852 8.80231 9.04559 8.75087Z" fill="black"/>
</svg>
