<svg width="22" height="21" viewBox="0 0 22 21" fill="none" xmlns="http://www.w3.org/2000/svg">
<path d="M11.2676 0C8.48344 0 5.81086 1.10693 3.84375 3.07535C1.87461 5.04455 0.768124 7.71517 0.767578 10.5C0.767578 13.2836 1.875 15.9562 3.84375 17.9246C5.81086 19.8931 8.48344 21 11.2676 21C14.0517 21 16.7243 19.8931 18.6914 17.9246C20.6602 15.9562 21.7676 13.2836 21.7676 10.5C21.7676 7.71635 20.6602 5.04377 18.6914 3.07535C16.7243 1.10693 14.0517 0 11.2676 0Z" fill="url(#paint0_linear_2_151)"/>
<path d="M5.5205 10.389C8.58191 9.05554 10.6228 8.17633 11.6433 7.75157C14.5603 6.53866 15.1657 6.328 15.5611 6.32086C15.6481 6.31947 15.8417 6.34096 15.968 6.44309C16.073 6.52922 16.1025 6.64571 16.1173 6.72749C16.1304 6.8092 16.1485 6.99541 16.1337 7.14077C15.9762 8.80108 15.2921 12.8301 14.9443 14.6898C14.7982 15.4766 14.5078 15.7404 14.2273 15.7662C13.617 15.8223 13.1543 15.3632 12.5637 14.9762C11.64 14.3703 11.1183 13.9933 10.2209 13.4022C9.18402 12.7191 9.85667 12.3435 10.4473 11.7299C10.6015 11.5693 13.2889 9.12559 13.3397 8.90394C13.3463 8.87622 13.3528 8.77286 13.2905 8.71839C13.2298 8.66376 13.1396 8.68246 13.0739 8.69723C12.9804 8.71823 11.5055 9.69407 8.64425 11.6246C8.22589 11.9124 7.84691 12.0526 7.50566 12.0452C7.1316 12.0372 6.40972 11.8333 5.87324 11.659C5.21699 11.4453 4.69363 11.3322 4.73956 10.9692C4.76253 10.7802 5.02339 10.5867 5.5205 10.389Z" fill="white"/>
<defs>
<linearGradient id="paint0_linear_2_151" x1="1050.77" y1="0" x2="1050.77" y2="2100" gradientUnits="userSpaceOnUse">
<stop stop-color="#2AABEE"/>
<stop offset="1" stop-color="#229ED9"/>
</linearGradient>
</defs>
</svg>
