<svg width="23" height="25" viewBox="0 0 23 25" fill="none" xmlns="http://www.w3.org/2000/svg">
<path d="M20.2001 2.33798C19.6046 1.78938 17.1946 0.0404317 11.8211 0.0169873C11.8211 0.0169873 5.48646 -0.362811 2.40119 2.46926C0.685062 4.18539 0.0801976 6.70331 0.0145534 9.8214C-0.0510907 12.9395 -0.130802 18.7818 5.50053 20.3667H5.50522L5.50053 22.7861C5.50053 22.7861 5.46302 23.7661 6.11008 23.963C6.88843 24.2068 7.34794 23.4613 8.09347 22.6595C8.5014 22.2188 9.06407 21.5717 9.49076 21.0794C13.345 21.4029 16.3037 20.6621 16.6413 20.5542C17.4196 20.301 21.8225 19.7383 22.5352 13.896C23.276 7.86615 22.1788 4.05879 20.2001 2.33798ZM20.8519 13.4553C20.247 18.3317 16.6788 18.6412 16.0223 18.8522C15.741 18.9412 13.1387 19.5883 9.87055 19.3773C9.87055 19.3773 7.43234 22.3172 6.67275 23.0815C6.42424 23.33 6.15228 23.3066 6.15697 22.8142C6.15697 22.4907 6.17572 18.7959 6.17572 18.7959C6.17104 18.7959 6.17104 18.7959 6.17572 18.7959C1.40246 17.4736 1.68379 12.4987 1.73537 9.89642C1.78695 7.29411 2.27928 5.16067 3.73283 3.72588C6.34452 1.358 11.7227 1.70967 11.7227 1.70967C16.2662 1.72842 18.4418 3.09757 18.9482 3.55708C20.6221 4.99187 21.4755 8.42412 20.8519 13.4553ZM14.3344 9.66667C14.3531 10.0699 13.7482 10.098 13.7295 9.6948C13.6779 8.66325 13.195 8.16154 12.2009 8.10528C11.7977 8.08183 11.8352 7.47697 12.2337 7.50041C13.5419 7.57075 14.2687 8.32097 14.3344 9.66667ZM15.2862 10.1965C15.3331 8.20843 14.0905 6.65173 11.732 6.47824C11.3335 6.45011 11.3757 5.84525 11.7742 5.87338C14.4938 6.07031 15.9426 7.94117 15.8911 10.2106C15.8864 10.6138 15.2768 10.5951 15.2862 10.1965ZM17.49 10.8248C17.4947 11.2281 16.8851 11.2328 16.8851 10.8295C16.857 7.00808 14.3109 4.92623 11.2209 4.90278C10.8224 4.89809 10.8224 4.29792 11.2209 4.29792C14.6766 4.32136 17.4571 6.708 17.49 10.8248ZM16.9601 15.4246V15.434C16.4537 16.3249 15.5066 17.3095 14.5313 16.9954L14.5219 16.9813C13.5326 16.7047 11.2022 15.5043 9.72989 14.3321C8.97029 13.7319 8.27634 13.0239 7.74181 12.344C7.25885 11.7391 6.77121 11.0218 6.29764 10.159C5.29891 8.35379 5.07853 7.5473 5.07853 7.5473C4.76438 6.57202 5.74435 5.62487 6.63992 5.11847H6.6493C7.08068 4.89341 7.4933 4.96843 7.76994 5.30134C7.76994 5.30134 8.35136 5.99529 8.59987 6.33758C8.83431 6.65642 9.14847 7.16751 9.31258 7.45353C9.5986 7.96461 9.42042 8.48508 9.13909 8.70076L8.57643 9.1509C8.2904 9.38065 8.32792 9.80734 8.32792 9.80734C8.32792 9.80734 9.16253 12.9629 12.2806 13.76C12.2806 13.76 12.7073 13.7976 12.9371 13.5115L13.3872 12.9489C13.6029 12.6675 14.1234 12.4894 14.6344 12.7754C15.3237 13.1646 16.2005 13.7694 16.7819 14.318C17.1102 14.5853 17.1852 14.9932 16.9601 15.4246Z" fill="#7360F2"/>
</svg>
