<svg width="14" height="14" viewBox="0 0 14 14" fill="none" xmlns="http://www.w3.org/2000/svg">
<path d="M0.29744 6.93909C0.297114 8.11926 0.605482 9.27161 1.19184 10.2873L0.241364 13.7577L3.79283 12.8265C4.77511 13.3612 5.8757 13.6414 6.99411 13.6415H6.99705C10.6891 13.6415 13.6946 10.6371 13.6962 6.94437C13.6969 5.15497 13.0006 3.47234 11.7357 2.20642C10.471 0.940603 8.78895 0.243126 6.99678 0.24231C3.30425 0.24231 0.299019 3.24651 0.297495 6.93909" fill="url(#paint0_linear_2_129)"/>
<path d="M0.0582546 6.93698C0.0578735 8.15962 0.377294 9.35319 0.984557 10.4053L0 14L3.67881 13.0354C4.69244 13.5881 5.83368 13.8795 6.99496 13.8799H6.99796C10.8225 13.8799 13.9359 10.7675 13.9376 6.94253C13.9382 5.08884 13.2169 3.34572 11.9068 2.03445C10.5965 0.723337 8.85432 0.00076221 6.99796 0C3.17275 0 0.059779 3.11199 0.0582546 6.93698ZM2.24906 10.2241L2.1117 10.006C1.53427 9.08788 1.2295 8.02689 1.22993 6.93742C1.23119 3.75819 3.81856 1.17163 7.00014 1.17163C8.54089 1.17228 9.98887 1.7729 11.078 2.86264C12.167 3.95249 12.7663 5.40124 12.7659 6.9421C12.7645 10.1213 10.177 12.7082 6.99796 12.7082H6.99567C5.96054 12.7077 4.94533 12.4297 4.05997 11.9044L3.84927 11.7794L1.66619 12.3518L2.24906 10.224V10.2241Z" fill="url(#paint1_linear_2_129)"/>
<path d="M5.26348 4.03691C5.13358 3.7482 4.99687 3.74237 4.87334 3.73731C4.77218 3.73296 4.65654 3.73328 4.54101 3.73328C4.42537 3.73328 4.23749 3.77678 4.07868 3.95019C3.9197 4.12375 3.47174 4.54318 3.47174 5.39626C3.47174 6.24939 4.09311 7.07383 4.17972 7.18963C4.26645 7.30522 5.37928 9.11187 7.14173 9.8069C8.60648 10.3845 8.90456 10.2696 9.22245 10.2406C9.5404 10.2118 10.2484 9.82132 10.3928 9.41643C10.5374 9.01159 10.5374 8.66456 10.494 8.59204C10.4507 8.5198 10.3351 8.47641 10.1617 8.38973C9.9882 8.303 9.13572 7.88352 8.9768 7.82564C8.81783 7.76782 8.70224 7.73897 8.58661 7.91259C8.47097 8.08594 8.13892 8.47641 8.0377 8.59204C7.9366 8.70795 7.83539 8.72238 7.66204 8.63565C7.48853 8.54865 6.93011 8.36578 6.26758 7.77512C5.75211 7.31551 5.40411 6.74793 5.30295 6.57431C5.20179 6.40096 5.29212 6.30699 5.37906 6.22059C5.45697 6.1429 5.55252 6.01812 5.6393 5.9169C5.72576 5.81564 5.75461 5.74339 5.81243 5.62775C5.87031 5.51201 5.84134 5.41074 5.79806 5.32401C5.75461 5.23729 5.41766 4.37975 5.26348 4.03691Z" fill="white"/>
<defs>
<linearGradient id="paint0_linear_2_129" x1="672.982" y1="1351.78" x2="672.982" y2="0.24231" gradientUnits="userSpaceOnUse">
<stop stop-color="#1FAF38"/>
<stop offset="1" stop-color="#60D669"/>
</linearGradient>
<linearGradient id="paint1_linear_2_129" x1="696.878" y1="1400" x2="696.878" y2="0" gradientUnits="userSpaceOnUse">
<stop stop-color="#F9F9F9"/>
<stop offset="1" stop-color="white"/>
</linearGradient>
</defs>
</svg>
